<mxfile host="Electron" agent="Mozilla/5.0 (Windows NT 10.0; Win64; x64) AppleWebKit/537.36 (KHTML, like Gecko) draw.io/26.2.15 Chrome/134.0.6998.205 Electron/35.2.1 Safari/537.36" version="26.2.15">
  <diagram name="第 1 页" id="K6LVnNoUIgOOiyLM4CaL">
    <mxGraphModel dx="1427" dy="859" grid="1" gridSize="10" guides="1" tooltips="1" connect="1" arrows="1" fold="1" page="1" pageScale="1" pageWidth="827" pageHeight="1169" math="0" shadow="0">
      <root>
        <mxCell id="0" />
        <mxCell id="1" parent="0" />
        <mxCell id="lFo5dBCkFlWAt6MOZHBI-6" style="edgeStyle=orthogonalEdgeStyle;rounded=0;orthogonalLoop=1;jettySize=auto;html=1;entryX=0.5;entryY=0;entryDx=0;entryDy=0;" edge="1" parent="1" source="lFo5dBCkFlWAt6MOZHBI-1" target="lFo5dBCkFlWAt6MOZHBI-5">
          <mxGeometry relative="1" as="geometry" />
        </mxCell>
        <mxCell id="lFo5dBCkFlWAt6MOZHBI-1" value="Kafka 監聽觸發&lt;div&gt;第一次消費者&lt;/div&gt;" style="rounded=0;whiteSpace=wrap;html=1;" vertex="1" parent="1">
          <mxGeometry x="280" y="130" width="120" height="60" as="geometry" />
        </mxCell>
        <mxCell id="lFo5dBCkFlWAt6MOZHBI-2" value="Worker 啟動" style="rounded=1;whiteSpace=wrap;html=1;" vertex="1" parent="1">
          <mxGeometry x="280" y="30" width="120" height="60" as="geometry" />
        </mxCell>
        <mxCell id="lFo5dBCkFlWAt6MOZHBI-3" value="" style="endArrow=classic;html=1;rounded=0;entryX=0.5;entryY=0;entryDx=0;entryDy=0;" edge="1" parent="1" source="lFo5dBCkFlWAt6MOZHBI-2" target="lFo5dBCkFlWAt6MOZHBI-1">
          <mxGeometry width="50" height="50" relative="1" as="geometry">
            <mxPoint x="390" y="360" as="sourcePoint" />
            <mxPoint x="440" y="310" as="targetPoint" />
          </mxGeometry>
        </mxCell>
        <mxCell id="lFo5dBCkFlWAt6MOZHBI-26" style="edgeStyle=orthogonalEdgeStyle;rounded=0;orthogonalLoop=1;jettySize=auto;html=1;entryX=0.5;entryY=0;entryDx=0;entryDy=0;" edge="1" parent="1" source="lFo5dBCkFlWAt6MOZHBI-5" target="lFo5dBCkFlWAt6MOZHBI-22">
          <mxGeometry relative="1" as="geometry" />
        </mxCell>
        <mxCell id="lFo5dBCkFlWAt6MOZHBI-5" value="緩存紀錄&lt;br&gt;DbConnection" style="rounded=0;whiteSpace=wrap;html=1;" vertex="1" parent="1">
          <mxGeometry x="280" y="210" width="120" height="60" as="geometry" />
        </mxCell>
        <mxCell id="lFo5dBCkFlWAt6MOZHBI-14" style="edgeStyle=orthogonalEdgeStyle;rounded=0;orthogonalLoop=1;jettySize=auto;html=1;entryX=0.5;entryY=0;entryDx=0;entryDy=0;" edge="1" parent="1" source="lFo5dBCkFlWAt6MOZHBI-7">
          <mxGeometry relative="1" as="geometry">
            <mxPoint x="340" y="470" as="targetPoint" />
          </mxGeometry>
        </mxCell>
        <mxCell id="lFo5dBCkFlWAt6MOZHBI-7" value="是否超過&amp;nbsp;&lt;div&gt;8 個小時&lt;/div&gt;" style="rhombus;whiteSpace=wrap;html=1;" vertex="1" parent="1">
          <mxGeometry x="300" y="360" width="80" height="80" as="geometry" />
        </mxCell>
        <mxCell id="lFo5dBCkFlWAt6MOZHBI-23" style="edgeStyle=orthogonalEdgeStyle;rounded=0;orthogonalLoop=1;jettySize=auto;html=1;endArrow=none;startFill=0;" edge="1" parent="1" source="lFo5dBCkFlWAt6MOZHBI-12">
          <mxGeometry relative="1" as="geometry">
            <mxPoint x="200" y="347" as="targetPoint" />
          </mxGeometry>
        </mxCell>
        <mxCell id="lFo5dBCkFlWAt6MOZHBI-12" value="執行正確&lt;br&gt;SQL工作" style="rounded=0;whiteSpace=wrap;html=1;" vertex="1" parent="1">
          <mxGeometry x="280" y="470" width="120" height="60" as="geometry" />
        </mxCell>
        <mxCell id="lFo5dBCkFlWAt6MOZHBI-15" value="結束工作&lt;br&gt;&lt;br&gt;&lt;div&gt;&lt;br&gt;&lt;/div&gt;" style="rounded=1;whiteSpace=wrap;html=1;" vertex="1" parent="1">
          <mxGeometry x="450" y="560" width="140" height="60" as="geometry" />
        </mxCell>
        <mxCell id="lFo5dBCkFlWAt6MOZHBI-17" value="" style="endArrow=classic;html=1;rounded=0;exitX=1;exitY=0.5;exitDx=0;exitDy=0;entryX=0.5;entryY=0;entryDx=0;entryDy=0;" edge="1" parent="1" source="lFo5dBCkFlWAt6MOZHBI-7" target="lFo5dBCkFlWAt6MOZHBI-16">
          <mxGeometry width="50" height="50" relative="1" as="geometry">
            <mxPoint x="380" y="400" as="sourcePoint" />
            <mxPoint x="520" y="400" as="targetPoint" />
            <Array as="points">
              <mxPoint x="520" y="400" />
            </Array>
          </mxGeometry>
        </mxCell>
        <mxCell id="lFo5dBCkFlWAt6MOZHBI-18" style="edgeStyle=orthogonalEdgeStyle;rounded=0;orthogonalLoop=1;jettySize=auto;html=1;entryX=0.5;entryY=0;entryDx=0;entryDy=0;" edge="1" parent="1" source="lFo5dBCkFlWAt6MOZHBI-16" target="lFo5dBCkFlWAt6MOZHBI-15">
          <mxGeometry relative="1" as="geometry" />
        </mxCell>
        <mxCell id="lFo5dBCkFlWAt6MOZHBI-16" value="發生閒置錯誤&lt;br&gt;因為連線是 8小時前建立" style="rounded=0;whiteSpace=wrap;html=1;" vertex="1" parent="1">
          <mxGeometry x="450" y="470" width="140" height="60" as="geometry" />
        </mxCell>
        <mxCell id="lFo5dBCkFlWAt6MOZHBI-27" style="edgeStyle=orthogonalEdgeStyle;rounded=0;orthogonalLoop=1;jettySize=auto;html=1;entryX=0.5;entryY=0;entryDx=0;entryDy=0;" edge="1" parent="1" source="lFo5dBCkFlWAt6MOZHBI-22" target="lFo5dBCkFlWAt6MOZHBI-7">
          <mxGeometry relative="1" as="geometry" />
        </mxCell>
        <mxCell id="lFo5dBCkFlWAt6MOZHBI-22" value="執行 SQL 查詢" style="rounded=0;whiteSpace=wrap;html=1;" vertex="1" parent="1">
          <mxGeometry x="280" y="287" width="120" height="50" as="geometry" />
        </mxCell>
        <mxCell id="lFo5dBCkFlWAt6MOZHBI-24" value="" style="endArrow=classic;html=1;rounded=0;" edge="1" parent="1">
          <mxGeometry width="50" height="50" relative="1" as="geometry">
            <mxPoint x="200" y="347" as="sourcePoint" />
            <mxPoint x="340" y="347" as="targetPoint" />
          </mxGeometry>
        </mxCell>
      </root>
    </mxGraphModel>
  </diagram>
</mxfile>
